<mxfile host="app.diagrams.net" modified="2023-10-22T07:17:42.903Z" agent="Mozilla/5.0 (X11; Ubuntu; Linux x86_64; rv:109.0) Gecko/20100101 Firefox/118.0" etag="fh5h2u6s4fnG_eDQX9rL" version="22.0.6" type="device">
  <diagram name="Página-1" id="HSNbVe-fVnbK9SOZLP-E">
    <mxGraphModel dx="1318" dy="568" grid="1" gridSize="10" guides="1" tooltips="1" connect="1" arrows="1" fold="1" page="1" pageScale="1" pageWidth="850" pageHeight="1100" math="0" shadow="0">
      <root>
        <mxCell id="0" />
        <mxCell id="1" parent="0" />
        <mxCell id="lS2i1yR9K2uIm20Ts1TI-5" style="edgeStyle=orthogonalEdgeStyle;rounded=0;orthogonalLoop=1;jettySize=auto;html=1;exitX=0;exitY=0;exitDx=70;exitDy=80;exitPerimeter=0;entryX=0.5;entryY=0;entryDx=0;entryDy=0;" edge="1" parent="1" source="lS2i1yR9K2uIm20Ts1TI-1" target="lS2i1yR9K2uIm20Ts1TI-4">
          <mxGeometry relative="1" as="geometry" />
        </mxCell>
        <mxCell id="lS2i1yR9K2uIm20Ts1TI-1" value="pantalla de inicio " style="shape=cube;whiteSpace=wrap;html=1;boundedLbl=1;backgroundOutline=1;darkOpacity=0.05;darkOpacity2=0.1;" vertex="1" parent="1">
          <mxGeometry x="440" y="150" width="120" height="80" as="geometry" />
        </mxCell>
        <mxCell id="lS2i1yR9K2uIm20Ts1TI-2" value="inicio QuetzalKey" style="ellipse;whiteSpace=wrap;html=1;aspect=fixed;" vertex="1" parent="1">
          <mxGeometry x="460" y="50" width="80" height="80" as="geometry" />
        </mxCell>
        <mxCell id="lS2i1yR9K2uIm20Ts1TI-3" style="edgeStyle=orthogonalEdgeStyle;rounded=0;orthogonalLoop=1;jettySize=auto;html=1;exitX=0.5;exitY=1;exitDx=0;exitDy=0;entryX=0.475;entryY=0.013;entryDx=0;entryDy=0;entryPerimeter=0;" edge="1" parent="1" source="lS2i1yR9K2uIm20Ts1TI-2" target="lS2i1yR9K2uIm20Ts1TI-1">
          <mxGeometry relative="1" as="geometry" />
        </mxCell>
        <mxCell id="lS2i1yR9K2uIm20Ts1TI-9" style="edgeStyle=orthogonalEdgeStyle;rounded=0;orthogonalLoop=1;jettySize=auto;html=1;exitX=1;exitY=0.5;exitDx=0;exitDy=0;" edge="1" parent="1" source="lS2i1yR9K2uIm20Ts1TI-4" target="lS2i1yR9K2uIm20Ts1TI-7">
          <mxGeometry relative="1" as="geometry" />
        </mxCell>
        <mxCell id="lS2i1yR9K2uIm20Ts1TI-4" value="iniciar o registro" style="rhombus;whiteSpace=wrap;html=1;" vertex="1" parent="1">
          <mxGeometry x="470" y="270" width="80" height="80" as="geometry" />
        </mxCell>
        <mxCell id="lS2i1yR9K2uIm20Ts1TI-6" value="Registro" style="shape=cube;whiteSpace=wrap;html=1;boundedLbl=1;backgroundOutline=1;darkOpacity=0.05;darkOpacity2=0.1;" vertex="1" parent="1">
          <mxGeometry x="140" y="380" width="120" height="80" as="geometry" />
        </mxCell>
        <mxCell id="lS2i1yR9K2uIm20Ts1TI-34" style="edgeStyle=orthogonalEdgeStyle;rounded=0;orthogonalLoop=1;jettySize=auto;html=1;exitX=0;exitY=0;exitDx=70;exitDy=80;exitPerimeter=0;" edge="1" parent="1" source="lS2i1yR9K2uIm20Ts1TI-7" target="lS2i1yR9K2uIm20Ts1TI-33">
          <mxGeometry relative="1" as="geometry" />
        </mxCell>
        <mxCell id="lS2i1yR9K2uIm20Ts1TI-7" value="Inicio " style="shape=cube;whiteSpace=wrap;html=1;boundedLbl=1;backgroundOutline=1;darkOpacity=0.05;darkOpacity2=0.1;" vertex="1" parent="1">
          <mxGeometry x="800" y="380" width="120" height="80" as="geometry" />
        </mxCell>
        <mxCell id="lS2i1yR9K2uIm20Ts1TI-8" style="edgeStyle=orthogonalEdgeStyle;rounded=0;orthogonalLoop=1;jettySize=auto;html=1;exitX=0;exitY=0.5;exitDx=0;exitDy=0;entryX=0;entryY=0;entryDx=50;entryDy=0;entryPerimeter=0;" edge="1" parent="1" source="lS2i1yR9K2uIm20Ts1TI-4" target="lS2i1yR9K2uIm20Ts1TI-6">
          <mxGeometry relative="1" as="geometry" />
        </mxCell>
        <mxCell id="lS2i1yR9K2uIm20Ts1TI-14" style="edgeStyle=orthogonalEdgeStyle;rounded=0;orthogonalLoop=1;jettySize=auto;html=1;exitX=0;exitY=0;exitDx=70;exitDy=80;exitPerimeter=0;entryX=0;entryY=0.5;entryDx=0;entryDy=0;" edge="1" parent="1" source="lS2i1yR9K2uIm20Ts1TI-10" target="lS2i1yR9K2uIm20Ts1TI-11">
          <mxGeometry relative="1" as="geometry" />
        </mxCell>
        <mxCell id="lS2i1yR9K2uIm20Ts1TI-15" style="edgeStyle=orthogonalEdgeStyle;rounded=0;orthogonalLoop=1;jettySize=auto;html=1;entryX=0;entryY=0.5;entryDx=0;entryDy=0;" edge="1" parent="1" source="lS2i1yR9K2uIm20Ts1TI-10" target="lS2i1yR9K2uIm20Ts1TI-12">
          <mxGeometry relative="1" as="geometry" />
        </mxCell>
        <mxCell id="lS2i1yR9K2uIm20Ts1TI-20" style="edgeStyle=orthogonalEdgeStyle;rounded=0;orthogonalLoop=1;jettySize=auto;html=1;" edge="1" parent="1" source="lS2i1yR9K2uIm20Ts1TI-10" target="lS2i1yR9K2uIm20Ts1TI-19">
          <mxGeometry relative="1" as="geometry" />
        </mxCell>
        <mxCell id="lS2i1yR9K2uIm20Ts1TI-10" value="Pedir datos" style="shape=cube;whiteSpace=wrap;html=1;boundedLbl=1;backgroundOutline=1;darkOpacity=0.05;darkOpacity2=0.1;" vertex="1" parent="1">
          <mxGeometry x="150" y="490" width="120" height="80" as="geometry" />
        </mxCell>
        <mxCell id="lS2i1yR9K2uIm20Ts1TI-11" value="nick name " style="ellipse;whiteSpace=wrap;html=1;aspect=fixed;" vertex="1" parent="1">
          <mxGeometry x="270" y="610" width="80" height="80" as="geometry" />
        </mxCell>
        <mxCell id="lS2i1yR9K2uIm20Ts1TI-12" value="correo" style="ellipse;whiteSpace=wrap;html=1;aspect=fixed;" vertex="1" parent="1">
          <mxGeometry x="270" y="700" width="80" height="80" as="geometry" />
        </mxCell>
        <mxCell id="lS2i1yR9K2uIm20Ts1TI-13" value="contraseña" style="ellipse;whiteSpace=wrap;html=1;aspect=fixed;" vertex="1" parent="1">
          <mxGeometry x="270" y="800" width="80" height="80" as="geometry" />
        </mxCell>
        <mxCell id="lS2i1yR9K2uIm20Ts1TI-16" style="edgeStyle=orthogonalEdgeStyle;rounded=0;orthogonalLoop=1;jettySize=auto;html=1;exitX=0;exitY=0;exitDx=70;exitDy=80;exitPerimeter=0;entryX=0.475;entryY=0.025;entryDx=0;entryDy=0;entryPerimeter=0;" edge="1" parent="1" source="lS2i1yR9K2uIm20Ts1TI-6" target="lS2i1yR9K2uIm20Ts1TI-10">
          <mxGeometry relative="1" as="geometry" />
        </mxCell>
        <mxCell id="lS2i1yR9K2uIm20Ts1TI-17" style="edgeStyle=orthogonalEdgeStyle;rounded=0;orthogonalLoop=1;jettySize=auto;html=1;entryX=-0.012;entryY=0.65;entryDx=0;entryDy=0;entryPerimeter=0;" edge="1" parent="1" source="lS2i1yR9K2uIm20Ts1TI-10" target="lS2i1yR9K2uIm20Ts1TI-13">
          <mxGeometry relative="1" as="geometry" />
        </mxCell>
        <mxCell id="lS2i1yR9K2uIm20Ts1TI-24" style="edgeStyle=orthogonalEdgeStyle;rounded=0;orthogonalLoop=1;jettySize=auto;html=1;exitX=0;exitY=0;exitDx=70;exitDy=80;exitPerimeter=0;entryX=0.5;entryY=0;entryDx=0;entryDy=0;" edge="1" parent="1" source="lS2i1yR9K2uIm20Ts1TI-19" target="lS2i1yR9K2uIm20Ts1TI-22">
          <mxGeometry relative="1" as="geometry" />
        </mxCell>
        <mxCell id="lS2i1yR9K2uIm20Ts1TI-19" value="Verificar datos" style="shape=cube;whiteSpace=wrap;html=1;boundedLbl=1;backgroundOutline=1;darkOpacity=0.05;darkOpacity2=0.1;" vertex="1" parent="1">
          <mxGeometry x="150" y="910" width="120" height="80" as="geometry" />
        </mxCell>
        <mxCell id="lS2i1yR9K2uIm20Ts1TI-22" value="si/no" style="rhombus;whiteSpace=wrap;html=1;" vertex="1" parent="1">
          <mxGeometry x="180" y="1060" width="80" height="80" as="geometry" />
        </mxCell>
        <mxCell id="lS2i1yR9K2uIm20Ts1TI-25" value="Adios" style="shape=cube;whiteSpace=wrap;html=1;boundedLbl=1;backgroundOutline=1;darkOpacity=0.05;darkOpacity2=0.1;" vertex="1" parent="1">
          <mxGeometry x="50" y="1190" width="120" height="80" as="geometry" />
        </mxCell>
        <mxCell id="lS2i1yR9K2uIm20Ts1TI-26" value="&lt;div&gt;Bienvenido &lt;br&gt;&lt;/div&gt;&lt;div&gt;(Almacenamos en base de datos)&lt;br&gt;&lt;/div&gt;" style="shape=cube;whiteSpace=wrap;html=1;boundedLbl=1;backgroundOutline=1;darkOpacity=0.05;darkOpacity2=0.1;" vertex="1" parent="1">
          <mxGeometry x="290" y="1190" width="120" height="80" as="geometry" />
        </mxCell>
        <mxCell id="lS2i1yR9K2uIm20Ts1TI-27" style="edgeStyle=orthogonalEdgeStyle;rounded=0;orthogonalLoop=1;jettySize=auto;html=1;exitX=0;exitY=0.5;exitDx=0;exitDy=0;entryX=0;entryY=0;entryDx=50;entryDy=0;entryPerimeter=0;" edge="1" parent="1" source="lS2i1yR9K2uIm20Ts1TI-22" target="lS2i1yR9K2uIm20Ts1TI-25">
          <mxGeometry relative="1" as="geometry" />
        </mxCell>
        <mxCell id="lS2i1yR9K2uIm20Ts1TI-28" style="edgeStyle=orthogonalEdgeStyle;rounded=0;orthogonalLoop=1;jettySize=auto;html=1;exitX=1;exitY=0.5;exitDx=0;exitDy=0;entryX=0.55;entryY=-0.025;entryDx=0;entryDy=0;entryPerimeter=0;" edge="1" parent="1" source="lS2i1yR9K2uIm20Ts1TI-22" target="lS2i1yR9K2uIm20Ts1TI-26">
          <mxGeometry relative="1" as="geometry" />
        </mxCell>
        <mxCell id="lS2i1yR9K2uIm20Ts1TI-29" value="Inicio de app " style="shape=cube;whiteSpace=wrap;html=1;boundedLbl=1;backgroundOutline=1;darkOpacity=0.05;darkOpacity2=0.1;" vertex="1" parent="1">
          <mxGeometry x="410" y="1440" width="120" height="80" as="geometry" />
        </mxCell>
        <mxCell id="lS2i1yR9K2uIm20Ts1TI-30" style="edgeStyle=orthogonalEdgeStyle;rounded=0;orthogonalLoop=1;jettySize=auto;html=1;exitX=0;exitY=0;exitDx=70;exitDy=80;exitPerimeter=0;entryX=0;entryY=0.513;entryDx=0;entryDy=0;entryPerimeter=0;" edge="1" parent="1" source="lS2i1yR9K2uIm20Ts1TI-26" target="lS2i1yR9K2uIm20Ts1TI-29">
          <mxGeometry relative="1" as="geometry" />
        </mxCell>
        <mxCell id="lS2i1yR9K2uIm20Ts1TI-31" value="Fin" style="ellipse;whiteSpace=wrap;html=1;aspect=fixed;" vertex="1" parent="1">
          <mxGeometry x="90" y="1340" width="80" height="80" as="geometry" />
        </mxCell>
        <mxCell id="lS2i1yR9K2uIm20Ts1TI-32" style="edgeStyle=orthogonalEdgeStyle;rounded=0;orthogonalLoop=1;jettySize=auto;html=1;exitX=0;exitY=0;exitDx=70;exitDy=80;exitPerimeter=0;entryX=0.425;entryY=0.013;entryDx=0;entryDy=0;entryPerimeter=0;" edge="1" parent="1" source="lS2i1yR9K2uIm20Ts1TI-25" target="lS2i1yR9K2uIm20Ts1TI-31">
          <mxGeometry relative="1" as="geometry" />
        </mxCell>
        <mxCell id="lS2i1yR9K2uIm20Ts1TI-37" style="edgeStyle=orthogonalEdgeStyle;rounded=0;orthogonalLoop=1;jettySize=auto;html=1;exitX=0;exitY=0;exitDx=70;exitDy=80;exitPerimeter=0;entryX=1;entryY=0.5;entryDx=0;entryDy=0;" edge="1" parent="1" source="lS2i1yR9K2uIm20Ts1TI-33" target="lS2i1yR9K2uIm20Ts1TI-35">
          <mxGeometry relative="1" as="geometry" />
        </mxCell>
        <mxCell id="lS2i1yR9K2uIm20Ts1TI-38" style="edgeStyle=orthogonalEdgeStyle;rounded=0;orthogonalLoop=1;jettySize=auto;html=1;exitX=0;exitY=0;exitDx=70;exitDy=80;exitPerimeter=0;entryX=1;entryY=0.5;entryDx=0;entryDy=0;" edge="1" parent="1" source="lS2i1yR9K2uIm20Ts1TI-33" target="lS2i1yR9K2uIm20Ts1TI-36">
          <mxGeometry relative="1" as="geometry" />
        </mxCell>
        <mxCell id="lS2i1yR9K2uIm20Ts1TI-40" style="edgeStyle=orthogonalEdgeStyle;rounded=0;orthogonalLoop=1;jettySize=auto;html=1;exitX=0;exitY=0;exitDx=70;exitDy=80;exitPerimeter=0;entryX=0.5;entryY=0;entryDx=0;entryDy=0;" edge="1" parent="1" source="lS2i1yR9K2uIm20Ts1TI-33" target="lS2i1yR9K2uIm20Ts1TI-39">
          <mxGeometry relative="1" as="geometry" />
        </mxCell>
        <mxCell id="lS2i1yR9K2uIm20Ts1TI-33" value="Pedir datos " style="shape=cube;whiteSpace=wrap;html=1;boundedLbl=1;backgroundOutline=1;darkOpacity=0.05;darkOpacity2=0.1;" vertex="1" parent="1">
          <mxGeometry x="810" y="530" width="120" height="80" as="geometry" />
        </mxCell>
        <mxCell id="lS2i1yR9K2uIm20Ts1TI-35" value="Nick name " style="ellipse;whiteSpace=wrap;html=1;aspect=fixed;" vertex="1" parent="1">
          <mxGeometry x="740" y="640" width="80" height="80" as="geometry" />
        </mxCell>
        <mxCell id="lS2i1yR9K2uIm20Ts1TI-36" value="Contraseña" style="ellipse;whiteSpace=wrap;html=1;aspect=fixed;" vertex="1" parent="1">
          <mxGeometry x="740" y="730" width="80" height="80" as="geometry" />
        </mxCell>
        <mxCell id="lS2i1yR9K2uIm20Ts1TI-39" value="Fallan 3 intentos " style="rhombus;whiteSpace=wrap;html=1;" vertex="1" parent="1">
          <mxGeometry x="840" y="820" width="80" height="80" as="geometry" />
        </mxCell>
        <mxCell id="lS2i1yR9K2uIm20Ts1TI-41" value="Mandar correo con contraseña " style="shape=cube;whiteSpace=wrap;html=1;boundedLbl=1;backgroundOutline=1;darkOpacity=0.05;darkOpacity2=0.1;" vertex="1" parent="1">
          <mxGeometry x="680" y="950" width="120" height="80" as="geometry" />
        </mxCell>
        <mxCell id="lS2i1yR9K2uIm20Ts1TI-42" style="edgeStyle=orthogonalEdgeStyle;rounded=0;orthogonalLoop=1;jettySize=auto;html=1;exitX=0;exitY=0.5;exitDx=0;exitDy=0;entryX=0.508;entryY=-0.041;entryDx=0;entryDy=0;entryPerimeter=0;" edge="1" parent="1" source="lS2i1yR9K2uIm20Ts1TI-39" target="lS2i1yR9K2uIm20Ts1TI-41">
          <mxGeometry relative="1" as="geometry" />
        </mxCell>
        <mxCell id="lS2i1yR9K2uIm20Ts1TI-43" value="si falla " style="text;html=1;strokeColor=none;fillColor=none;align=center;verticalAlign=middle;whiteSpace=wrap;rounded=0;" vertex="1" parent="1">
          <mxGeometry x="750" y="900" width="60" height="30" as="geometry" />
        </mxCell>
        <mxCell id="lS2i1yR9K2uIm20Ts1TI-44" value="Bienvenido " style="shape=cube;whiteSpace=wrap;html=1;boundedLbl=1;backgroundOutline=1;darkOpacity=0.05;darkOpacity2=0.1;" vertex="1" parent="1">
          <mxGeometry x="940" y="950" width="120" height="80" as="geometry" />
        </mxCell>
        <mxCell id="lS2i1yR9K2uIm20Ts1TI-45" style="edgeStyle=orthogonalEdgeStyle;rounded=0;orthogonalLoop=1;jettySize=auto;html=1;exitX=1;exitY=0.5;exitDx=0;exitDy=0;entryX=0.482;entryY=0.012;entryDx=0;entryDy=0;entryPerimeter=0;" edge="1" parent="1" source="lS2i1yR9K2uIm20Ts1TI-39" target="lS2i1yR9K2uIm20Ts1TI-44">
          <mxGeometry relative="1" as="geometry" />
        </mxCell>
        <mxCell id="lS2i1yR9K2uIm20Ts1TI-46" value="No falla " style="text;html=1;strokeColor=none;fillColor=none;align=center;verticalAlign=middle;whiteSpace=wrap;rounded=0;" vertex="1" parent="1">
          <mxGeometry x="940" y="900" width="60" height="30" as="geometry" />
        </mxCell>
        <mxCell id="lS2i1yR9K2uIm20Ts1TI-48" value="Lograr entrar " style="shape=cube;whiteSpace=wrap;html=1;boundedLbl=1;backgroundOutline=1;darkOpacity=0.05;darkOpacity2=0.1;" vertex="1" parent="1">
          <mxGeometry x="830" y="1140" width="120" height="80" as="geometry" />
        </mxCell>
        <mxCell id="lS2i1yR9K2uIm20Ts1TI-49" style="edgeStyle=orthogonalEdgeStyle;rounded=0;orthogonalLoop=1;jettySize=auto;html=1;exitX=0;exitY=0;exitDx=70;exitDy=80;exitPerimeter=0;entryX=-0.005;entryY=0.611;entryDx=0;entryDy=0;entryPerimeter=0;" edge="1" parent="1" source="lS2i1yR9K2uIm20Ts1TI-41" target="lS2i1yR9K2uIm20Ts1TI-48">
          <mxGeometry relative="1" as="geometry" />
        </mxCell>
        <mxCell id="lS2i1yR9K2uIm20Ts1TI-50" style="edgeStyle=orthogonalEdgeStyle;rounded=0;orthogonalLoop=1;jettySize=auto;html=1;exitX=0;exitY=0;exitDx=70;exitDy=80;exitPerimeter=0;entryX=1.004;entryY=0.729;entryDx=0;entryDy=0;entryPerimeter=0;" edge="1" parent="1" source="lS2i1yR9K2uIm20Ts1TI-44" target="lS2i1yR9K2uIm20Ts1TI-48">
          <mxGeometry relative="1" as="geometry" />
        </mxCell>
        <mxCell id="lS2i1yR9K2uIm20Ts1TI-51" style="edgeStyle=orthogonalEdgeStyle;rounded=0;orthogonalLoop=1;jettySize=auto;html=1;exitX=0;exitY=0;exitDx=70;exitDy=80;exitPerimeter=0;entryX=0;entryY=0;entryDx=120;entryDy=50;entryPerimeter=0;" edge="1" parent="1" source="lS2i1yR9K2uIm20Ts1TI-48" target="lS2i1yR9K2uIm20Ts1TI-29">
          <mxGeometry relative="1" as="geometry" />
        </mxCell>
        <mxCell id="lS2i1yR9K2uIm20Ts1TI-53" value="datos Fallidos" style="text;html=1;strokeColor=none;fillColor=none;align=center;verticalAlign=middle;whiteSpace=wrap;rounded=0;" vertex="1" parent="1">
          <mxGeometry x="100" y="1140" width="60" height="30" as="geometry" />
        </mxCell>
        <mxCell id="lS2i1yR9K2uIm20Ts1TI-54" value="Datos buenos" style="text;html=1;strokeColor=none;fillColor=none;align=center;verticalAlign=middle;whiteSpace=wrap;rounded=0;" vertex="1" parent="1">
          <mxGeometry x="290" y="1140" width="60" height="30" as="geometry" />
        </mxCell>
      </root>
    </mxGraphModel>
  </diagram>
</mxfile>
